<?xml version="1.0" standalone="no"?><!DOCTYPE svg PUBLIC "-//W3C//DTD SVG 1.1//EN" "http://www.w3.org/Graphics/SVG/1.1/DTD/svg11.dtd"><svg t="1649075327462" class="icon" viewBox="0 0 1024 1024" version="1.1" xmlns="http://www.w3.org/2000/svg" p-id="31986" xmlns:xlink="http://www.w3.org/1999/xlink" width="200" height="200"><defs><style type="text/css"></style></defs><path d="M483.555556 10.723556a85.333333 85.333333 0 0 1 82.574222 0l381.952 211.057777a85.333333 85.333333 0 0 1 44.088889 74.695111v419.015112a85.333333 85.333333 0 0 1-44.088889 74.666666l-381.952 211.114667a85.333333 85.333333 0 0 1-82.545778 0l-381.952-211.057778a85.333333 85.333333 0 0 1-44.088889-74.723555v-418.986667A85.333333 85.333333 0 0 1 101.632 221.866667L483.555556 10.695111v0.028445zM222.151111 338.688a42.666667 42.666667 0 0 0 16.668445 58.026667l243.370666 134.456889v268.174222a42.666667 42.666667 0 0 0 85.333334 0v-268.174222l243.370666-134.542223a42.666667 42.666667 0 0 0-41.244444-74.638222l-244.792889 135.253333-244.736-135.253333a42.666667 42.666667 0 0 0-57.969778 16.725333z" p-id="31987" fill="#1296db"></path></svg>