<?xml version="1.0" standalone="no"?><!DOCTYPE svg PUBLIC "-//W3C//DTD SVG 1.1//EN" "http://www.w3.org/Graphics/SVG/1.1/DTD/svg11.dtd"><svg t="1649074748586" class="icon" viewBox="0 0 1024 1024" version="1.1" xmlns="http://www.w3.org/2000/svg" p-id="30871" xmlns:xlink="http://www.w3.org/1999/xlink" width="200" height="200"><defs><style type="text/css"></style></defs><path d="M510.084723 438.857143q135.428571 0 253.142857-24.571429t185.714286-72.571428v97.142857q0 39.428571-58.857143 73.142857t-160 53.428571-220 19.714286-220-19.714286T130.084723 512 71.22758 438.857143V341.714286q68 48 185.714286 72.571428t253.142857 24.571429z m0 438.857143q135.428571 0 253.142857-24.571429t185.714286-72.571428v97.142857q0 39.428571-58.857143 73.142857t-160 53.428571-220 19.714286-220-19.714286-160-53.428571T71.22758 877.714286v-97.142857q68 48 185.714286 72.571428t253.142857 24.571429z m0-219.428572q135.428571 0 253.142857-24.571428t185.714286-72.571429v97.142857q0 39.428571-58.857143 73.142857t-160 53.428572-220 19.714286-220-19.714286-160-53.428572T71.22758 658.285714V561.142857q68 48 185.714286 72.571429t253.142857 24.571428zM510.084723 0q118.857143 0 220 19.714286t160 53.428571 58.857143 73.142857v73.142857q0 39.428571-58.857143 73.142858t-160 53.428571T510.084723 365.714286t-220-19.714286T130.084723 292.571429 71.22758 219.428571V146.285714q0-39.428571 58.857143-73.142857t160-53.428571T510.084723 0z" p-id="30872" fill="#e0620d"></path></svg>