<?xml version="1.0" standalone="no"?><!DOCTYPE svg PUBLIC "-//W3C//DTD SVG 1.1//EN" "http://www.w3.org/Graphics/SVG/1.1/DTD/svg11.dtd"><svg t="1649080348483" class="icon" viewBox="0 0 1024 1024" version="1.1" xmlns="http://www.w3.org/2000/svg" p-id="62320" xmlns:xlink="http://www.w3.org/1999/xlink" width="200" height="200"><defs><style type="text/css"></style></defs><path d="M387.657 168.229l7.314 7.314c-14.628 36.571-21.942 65.828-29.257 102.4h73.143C460.8 204.8 490.057 146.286 512 146.286c21.943 0 51.2 58.514 73.143 131.657h73.143c-7.315-36.572-21.943-73.143-29.257-102.4l7.314-7.314c58.514 21.942 117.028 58.514 153.6 109.714h95.086C804.57 153.6 665.6 73.143 512 73.143S219.429 153.6 138.971 285.257h87.772c43.886-51.2 102.4-95.086 160.914-117.028zM636.343 855.77l-7.314-7.314c14.628-29.257 21.942-65.828 29.257-102.4h-73.143C563.2 819.2 533.943 877.714 512 877.714c-21.943 0-51.2-58.514-73.143-131.657h-73.143c7.315 36.572 21.943 73.143 29.257 102.4l-7.314 7.314c-58.514-21.942-117.028-58.514-153.6-109.714h-95.086C219.43 870.4 358.4 950.857 512 950.857S804.571 870.4 885.029 738.743h-87.772c-43.886 51.2-102.4 95.086-160.914 117.028z m36.571-204.8V416.914h80.457V358.4H533.943v51.2H614.4v241.371h58.514z m307.2-226.742c0-14.629-7.314-21.943-14.628-29.258-7.315-7.314-14.629-14.628-29.257-21.942-14.629-7.315-21.943-7.315-43.886-7.315H775.314v292.572h58.515V548.57h58.514c14.628 0 29.257 0 43.886-7.314 14.628-7.314 21.942-14.628 29.257-21.943 7.314-7.314 14.628-21.943 14.628-29.257 0-14.628 7.315-21.943 7.315-36.571 0-7.315 0-21.943-7.315-29.257z m-51.2 51.2c0 7.314-7.314 7.314-14.628 14.628s-7.315 7.314-14.629 7.314H833.83V409.6h65.828c7.314 0 14.629 0 14.629 7.314s7.314 7.315 14.628 14.629c0 7.314 7.315 14.628 7.315 21.943-7.315 14.628-7.315 21.943-7.315 21.943zM424.23 650.97V416.914h80.457V358.4H285.257v51.2h80.457v241.371h58.515z m-226.743 0H256V358.4h-58.514v109.714h-102.4V358.4H36.57v292.571h58.515V526.63h102.4V650.97z" p-id="62321" fill="#1296db"></path></svg>