<?xml version="1.0" standalone="no"?><!DOCTYPE svg PUBLIC "-//W3C//DTD SVG 1.1//EN" "http://www.w3.org/Graphics/SVG/1.1/DTD/svg11.dtd"><svg t="1649075966696" class="icon" viewBox="0 0 1024 1024" version="1.1" xmlns="http://www.w3.org/2000/svg" p-id="43446" xmlns:xlink="http://www.w3.org/1999/xlink" width="200" height="200"><defs><style type="text/css"></style></defs><path d="M831 447.9c-17.7 0-32-14.3-32-32 0-158.8-129.2-288-288-288s-288 129.2-288 288c0 17.7-14.3 32-32 32s-32-14.3-32-32c0-47.5 9.3-93.6 27.7-137 17.7-41.9 43.1-79.6 75.4-111.9 32.3-32.3 70-57.7 111.9-75.4C417.4 73.3 463.5 64 511 64s93.6 9.3 137 27.7c41.9 17.7 79.6 43.1 111.9 75.4 32.3 32.3 57.7 70 75.4 111.9 18.4 43.4 27.7 89.5 27.7 137 0 17.6-14.3 31.9-32 31.9z" p-id="43447" fill="#d4237a"></path><path d="M703.3 447.9c-17.7 0-32-14.3-32-32 0-88.3-71.8-160.1-160.1-160.1s-160.1 71.8-160.1 160.1c0 17.7-14.3 32-32 32s-32-14.3-32-32c0-59.9 23.3-116.2 65.6-158.5s98.6-65.6 158.5-65.6c59.9 0 116.2 23.3 158.5 65.6s65.6 98.6 65.6 158.5c0 17.7-14.3 32-32 32z" p-id="43448" fill="#d4237a"></path><path d="M511 625c-17.6 0-32-14.4-32-32V352c0-17.6 14.4-32 32-32s32 14.4 32 32v241c0 17.6-14.4 32-32 32z" p-id="43449" fill="#d4237a"></path><path d="M894.2 639.7l0.1 0.1v255.8l-0.1 0.1H126.4l-0.1-0.1V639.8l0.1-0.1h767.8m0.1-64h-768c-35.2 0-64 28.8-64 64v256c0 35.2 28.8 64 64 64h768c35.2 0 64-28.8 64-64v-256c0-35.2-28.8-64-64-64z" p-id="43450" fill="#d4237a"></path><path d="M223 735.8c-17.7 0-32 14.3-32 32s14.3 32 32 32 32-14.3 32-32-14.3-32-32-32zM351.1 735.8c-17.7 0-32 14.3-32 32s14.3 32 32 32 32-14.3 32-32-14.4-32-32-32z" p-id="43451" fill="#d4237a"></path></svg>