<?xml version="1.0" standalone="no"?><!DOCTYPE svg PUBLIC "-//W3C//DTD SVG 1.1//EN" "http://www.w3.org/Graphics/SVG/1.1/DTD/svg11.dtd"><svg t="1649075612486" class="icon" viewBox="0 0 1024 1024" version="1.1" xmlns="http://www.w3.org/2000/svg" p-id="33457" xmlns:xlink="http://www.w3.org/1999/xlink" width="200" height="200"><defs><style type="text/css"></style></defs><path d="M96 800v-384h576v384z" fill="#e0620d" opacity=".1" p-id="33458"></path><path d="M672 384h-576l-32 32v384l32 32h576l32-32v-384z m-32 384H128V448h512z" fill="#e0620d" p-id="33459"></path><path d="M401.728 634.624h-35.456l-288-192L64 416l32-32h576l32 32-14.272 26.624zM201.664 448L384 569.6 566.336 448z" fill="#e0620d" p-id="33460"></path><path d="M832 288v384l-32 32H768V320H192v-32l32-32h576z" fill="#e0620d" opacity=".75" p-id="33461"></path><path d="M960 160v384l-32 32H896V192H320v-32l32-32h576z" fill="#e0620d" opacity=".75" p-id="33462"></path></svg>