<?xml version="1.0" standalone="no"?><!DOCTYPE svg PUBLIC "-//W3C//DTD SVG 1.1//EN" "http://www.w3.org/Graphics/SVG/1.1/DTD/svg11.dtd"><svg t="1649074170421" class="icon" viewBox="0 0 1024 1024" version="1.1" xmlns="http://www.w3.org/2000/svg" p-id="27142" xmlns:xlink="http://www.w3.org/1999/xlink" width="200" height="200"><defs><style type="text/css"></style></defs><path d="M507.733333 128l20.053334 0.426667c125.184 7.168 228.266667 99.242667 244.48 219.477333h-2.133334c139.605333 4.352 251.562667 113.834667 253.866667 248.746667v4.096c0 138.154667-115.114667 250.624-258.218667 252.842666H582.997333c-18.773333 0-34.133333-14.677333-34.133333-33.024 0-18.090667 14.933333-32.768 33.621333-33.024h179.029334c107.264 0 194.218667-83.626667 194.218666-186.794666 0-101.973333-85.077333-185.173333-190.976-186.88h-24.405333a33.621333 33.621333 0 0 1-34.133333-32.512l-0.426667-12.8C698.88 270.848 614.826667 193.962667 512 193.962667c-106.154667 0-192.597333 81.92-194.304 183.637333v3.157333a33.621333 33.621333 0 0 1-33.706667 33.024h-21.504C155.306667 413.866667 68.266667 497.578667 68.266667 600.746667c0 101.973333 85.077333 185.173333 190.976 186.794666H365.226667c18.773333 0 34.133333 14.762667 34.133333 33.024a33.621333 33.621333 0 0 1-33.706667 33.109334h-103.253333C117.589333 853.674667 0 740.522667 0 600.746667 0 464.213333 112.64 352.426667 253.866667 347.904h-2.304c16.128-118.784 117.077333-210.261333 240.64-219.221333L507.733333 128z m-41.898666 349.866667c14.762667 0 27.904 2.56 39.509333 7.765333a84.48 84.48 0 0 1 29.354667 21.333333c8.021333 9.216 14.165333 19.882667 18.432 32.085334 4.266667 12.202667 6.4 25.429333 6.4 39.765333 0 13.909333-2.133333 26.794667-6.4 38.741333a96.426667 96.426667 0 0 1-18.432 31.573334l23.722666 21.76-19.456 20.309333L512 666.88l-7.936 3.925333a96.938667 96.938667 0 0 1-38.229333 6.997334c-14.592 0-27.733333-2.56-39.338667-7.68a84.309333 84.309333 0 0 1-29.525333-20.906667 93.013333 93.013333 0 0 1-18.432-31.488 115.712 115.712 0 0 1-6.4-38.912c0-14.336 2.133333-27.562667 6.4-39.765333a95.573333 95.573333 0 0 1 18.432-32 84.224 84.224 0 0 1 29.525333-21.418667c11.605333-5.12 24.746667-7.765333 39.338667-7.765333z m-261.802667 4.522666l44.544 131.413334h0.597333l42.154667-131.413334h58.88v191.146667h-39.168V538.112H310.613333l-46.677333 135.424h-32.341333l-46.677334-134.144H184.32v134.144H145.066667v-191.146667h58.965333z m518.485333 0v35.328h-57.088v155.818667h-41.813333V517.717333h-57.173333v-35.328h156.16z m156.416 0v35.328h-57.173333v155.818667h-41.813333V517.717333h-57.173334v-35.328h156.16z m-413.098666 30.805334a45.397333 45.397333 0 0 0-40.106667 20.224 64.597333 64.597333 0 0 0-8.874667 20.992 104.96 104.96 0 0 0 0 47.786666 63.402667 63.402667 0 0 0 8.96 20.48c4.096 6.058667 9.386667 10.922667 16.042667 14.506667a48.810667 48.810667 0 0 0 23.978667 5.546667h4.096l3.413333-0.256 2.56-0.256a22.442667 22.442667 0 0 0 6.741333-2.133334l-17.92-16.298666 19.541334-20.906667 21.589333 19.797333 3.328-5.205333a64.682667 64.682667 0 0 0 5.205333-12.8 104.96 104.96 0 0 0 0.426667-50.346667 64.597333 64.597333 0 0 0-8.96-20.906666 45.397333 45.397333 0 0 0-40.021333-20.224z" p-id="27143" fill="#d4237a"></path></svg>