<?xml version="1.0" standalone="no"?><!DOCTYPE svg PUBLIC "-//W3C//DTD SVG 1.1//EN" "http://www.w3.org/Graphics/SVG/1.1/DTD/svg11.dtd"><svg t="1649075678599" class="icon" viewBox="0 0 1024 1024" version="1.1" xmlns="http://www.w3.org/2000/svg" p-id="35369" xmlns:xlink="http://www.w3.org/1999/xlink" width="200" height="200"><defs><style type="text/css"></style></defs><path d="M585.1136 719.5648c-59.904 30.72-92.8768 30.72-140.1856 8.2944S4.4032 540.9792 4.4032 540.9792v119.0912c0 10.24 14.336 21.0944 40.96 33.8944 53.76 25.8048 352.3584 146.2272 399.36 168.8576s80.2816 22.7328 140.1856-8.2944 340.2752-146.2272 394.4448-174.6944c27.5456-14.336 39.7312-25.6 39.7312-35.6352V526.6432S645.12 688.2304 585.1136 719.5648z" fill="#d81e06" p-id="35370"></path><path d="M585.1136 552.2432c-59.904 30.72-92.8768 30.72-140.1856 8.2944S4.4032 373.3504 4.4032 373.3504v119.0912c0 10.24 14.336 21.0944 40.96 33.8944 53.76 25.9072 352.3584 146.3296 399.36 169.0624s80.2816 22.7328 140.1856-8.2944S925.184 540.7744 979.3536 512c27.5456-14.336 39.7312-25.6 39.7312-35.6352V359.1168S645.12 520.9088 585.1136 552.2432z" fill="#d81e06" p-id="35371"></path><path d="M585.5232 514.048C645.12 482.6112 1019.5968 318.1568 1019.5968 318.1568V202.3424c0-10.24-13.2096-19.456-40.2432-29.2864C926.208 153.6 647.3728 42.5984 593.92 23.1424s-75.1616-18.7392-137.8304 3.584S96.4608 165.6832 43.6224 186.368c-26.624 10.24-39.6288 20.48-38.8096 30.72v117.0432S397.9264 499.712 445.2352 522.24s80.384 22.7328 140.288-8.192zM887.808 205.4144L733.696 266.24l-138.9568-54.9888 153.6-60.928z m-408.1664-100.5568l-22.7328-41.984 70.9632 27.648 66.7648-21.9136-18.1248 43.2128 68.096 25.6-87.9616 9.0112-19.7632 47.616-31.744-52.9408-101.4784-9.0112zM178.7904 212.5824c0-26.624 56.32-48.7424 125.7472-48.7424S430.08 185.5488 430.08 212.5824s-56.32 48.7424-125.7472 48.7424-125.5424-21.7088-125.5424-48.7424zM603.136 263.168l-71.68 104.1408-163.84-67.9936zM349.184 921.6q-1.9456-34.2016-46.8992-35.4304h-62.2592v125.1328h21.8112V958.464h26.9312l44.9536 52.8384h29.4912l-49.4592-53.9648Q349.184 952.32 349.184 921.6z m-87.3472 18.0224v-34.816h36.5568q27.648 0.6144 28.2624 16.1792 0.6144 18.6368-28.2624 18.6368zM435.6096 917.7088q-46.1824 2.3552-48.128 49.152 1.6384 45.056 48.7424 46.8992 36.5568 0.6144 45.568-27.648l-21.8112-5.4272a21.504 21.504 0 0 1-24.3712 16.7936A25.1904 25.1904 0 0 1 409.6 972.8h72.4992v-5.4272q-0.8192-48.4352-46.4896-49.664z m-24.3712 38.4a23.7568 23.7568 0 0 1 24.3712-20.48 21.7088 21.7088 0 0 1 23.7568 20.48zM579.7888 929.6896a32.8704 32.8704 0 0 0-25.088-11.9808q-43.008 0-43.008 49.152 0 46.1824 40.448 46.7968a32.256 32.256 0 0 0 27.648-11.9808v10.24h21.1968V887.0912h-21.1968z m0 40.96q0 27.0336-23.1424 27.0336t-23.7568-30.72q0-32.3584 23.7568-31.8464a21.504 21.504 0 0 1 23.1424 23.9616zM641.8432 887.0912h21.1968v22.2208h-21.1968zM641.8432 919.552h21.1968v91.7504h-21.1968zM744.2432 956.7232q-23.7568-3.584-22.4256-11.9808t16.6912-9.6256a15.6672 15.6672 0 0 1 17.92 12.5952l21.1968-4.8128q-5.7344-24.576-39.8336-25.1904-35.9424 1.2288-37.888 27.0336-1.9456 23.4496 39.8336 29.3888 21.8112 2.9696 20.48 11.9808 0 11.3664-20.48 11.3664a19.8656 19.8656 0 0 1-22.4256-16.7936l-20.48 5.4272q8.2944 27.0336 43.008 27.0336 40.96-0.6144 42.3936-27.648 0.6144-22.9376-37.9904-28.7744zM4.4032 843.8784c0 10.24 14.336 21.0944 40.96 33.8944 21.6064 10.24 82.5344 35.9424 150.8352 64.3072V805.1712C96.1536 762.9824 4.4032 724.6848 4.4032 724.6848zM827.6992 793.6v137.6256c68.096-29.2864 129.2288-55.9104 151.6544-67.6864 27.5456-14.336 39.7312-25.6 39.7312-35.6352V710.3488s-91.648 39.424-191.3856 83.2512z" fill="#d81e06" p-id="35372"></path></svg>